<svg width="34" height="34" viewBox="0 0 34 34" fill="none" xmlns="http://www.w3.org/2000/svg">
<g clip-path="url(#clip0_1_1756)">
<path d="M25.5 18.2051C24.5716 18.2051 23.7122 18.4827 22.9812 18.9455V23.2418H20.8089C20.9742 25.7002 22.9991 27.6495 25.4991 27.6495C26.7515 27.6495 27.9526 27.152 28.8382 26.2664C29.7238 25.3808 30.2213 24.1797 30.2213 22.9273V18.2051H25.5Z" fill="#55ACEE"/>
<path d="M21.7175 21.7212L21.7222 6.61011L30.2222 6.61294L30.2175 21.7241L21.7175 21.7212Z" fill="#1C6399"/>
<path d="M22.8574 20.2593L28.8584 26.2603L22.3626 32.7562L16.3616 26.7552L22.8574 20.2593Z" fill="#1C6399"/>
<path d="M28.3333 3.77783H23.6111C22.5722 3.77783 21.7222 4.62783 21.7222 5.66672V7.55561H30.2222V5.66672C30.2222 4.62783 29.3722 3.77783 28.3333 3.77783ZM14.1667 14.4274C13.2383 14.4274 12.3788 14.7051 11.6478 15.1678V19.4641H9.47562C9.64089 21.9225 11.6658 23.8718 14.1657 23.8718C15.4181 23.8718 16.6193 23.3743 17.5048 22.4887C18.3904 21.6031 18.888 20.402 18.888 19.1496V14.4274H14.1667Z" fill="#55ACEE"/>
<path d="M10.3832 17.9434L10.3889 2.83228L18.8889 2.83511L18.8832 17.9462L10.3832 17.9434Z" fill="#1C6399"/>
<path d="M22.3607 32.7552C21.5636 33.5523 20.4826 34 19.3554 34C18.2283 34 17.1473 33.5523 16.3502 32.7552C15.5532 31.9582 15.1054 30.8772 15.1054 29.75C15.1054 28.6228 15.5532 27.5418 16.3502 26.7448C16.3502 26.7448 17.4354 26.8704 19.8352 29.2702C22.2351 31.6701 22.3607 32.7552 22.3607 32.7552ZM17 0H12.2778C11.2389 0 10.3889 0.85 10.3889 1.88889V3.77778H18.8889V1.88889C18.8889 0.85 18.0389 0 17 0Z" fill="#55ACEE"/>
<path d="M11.5241 16.4814L17.5251 22.4824L11.0292 28.9783L5.02823 22.9773L11.5241 16.4814Z" fill="#1C6399"/>
<path d="M11.0273 28.9775C10.2303 29.7745 9.14928 30.2223 8.02211 30.2223C6.89493 30.2223 5.81392 29.7745 5.01688 28.9775C4.21985 28.1804 3.77208 27.0994 3.77208 25.9723C3.77208 24.8451 4.21985 23.7641 5.01688 22.967C5.01688 22.967 6.10205 23.0927 8.50188 25.4925C10.9017 27.8923 11.0273 28.9775 11.0273 28.9775Z" fill="#55ACEE"/>
<path d="M21.7166 9.50776H30.2166V11.3966H21.7166V9.50776ZM21.7166 13.2855H30.2166V15.1744H21.7166V13.2855ZM10.3832 5.72998H18.8832V7.61887H10.3832V5.72998ZM10.3832 9.50776H18.8832V11.3966H10.3832V9.50776Z" fill="#FFCC4D"/>
</g>
<defs>
<clipPath id="clip0_1_1756">
<rect width="34" height="34" fill="white"/>
</clipPath>
</defs>
</svg>
